<svg width="60" height="60" viewBox="0 0 60 60" fill="none" xmlns="http://www.w3.org/2000/svg">
<rect width="60" height="60" rx="12" fill="#007CBF"/>
<path d="M20.172 12.1719C17.276 15.0679 17.276 19.7631 20.172 22.659L26.2495 28.7365L28.3469 26.6391L22.2694 20.5616C20.5318 18.8241 20.5318 16.0069 22.2694 14.2694C24.0069 12.5318 26.8241 12.5318 28.5616 14.2694L41.1461 26.8539C42.8837 28.5914 42.8837 31.4086 41.1461 33.1461C39.4086 34.8837 36.5914 34.8837 34.8539 33.1461L32.9423 31.2345L30.8449 33.332L32.7565 35.2436C35.6524 38.1395 40.3476 38.1395 43.2436 35.2436C46.1395 32.3476 46.1395 27.6524 43.2436 24.7565L30.659 12.1719C27.7631 9.27602 23.0679 9.27602 20.172 12.1719Z" fill="white"/>
<path d="M27.5129 30L20.1719 37.341C17.276 40.2369 17.276 44.9321 20.1719 47.8281C23.0679 50.724 27.7631 50.724 30.659 47.8281L39.0536 39.4335C37.7691 39.5762 36.4611 39.4571 35.2159 39.0763L28.5616 45.7307C26.8241 47.4682 24.0069 47.4682 22.2694 45.7307C20.5318 43.9931 20.5318 41.176 22.2694 39.4384L34.8539 26.8539C35.4708 26.237 36.2237 25.8391 37.0161 25.6603L34.7086 23.3527C34.004 23.7017 33.3433 24.1696 32.7565 24.7565L29.6103 27.9026L29.6053 27.8976L27.5079 29.995L27.5129 30Z" fill="white"/>
</svg>
